<svg width="1440" height="820" viewBox="0 0 1440 820" fill="none" xmlns="http://www.w3.org/2000/svg">
<mask id="path-1-inside-1" fill="white">
<rect width="1440" height="820" rx="10"/>
</mask>
<rect width="1440" height="820" rx="10" stroke="#44BB88" stroke-width="120" mask="url(#path-1-inside-1)"/>
<path d="M193.032 364.712L261.448 363.192L262.472 355.56L236.936 353.272C236.936 353.272 238.216 347.16 238.216 339.528V208.568L241.032 205.768H264.264C283.656 205.768 292.088 210.856 291.304 236.808H300.76L308.68 192.808C308.68 192.808 300.76 194.328 290.28 194.328H168.04C157.56 194.328 150.92 192.808 150.92 192.808L143 236.808H152.184C162.152 210.856 169.8 205.768 186.904 205.768H210.648V339.528C210.648 348.696 204.008 354.792 193.048 356.072V364.712H193.032ZM298.488 308.76C298.488 338.776 317.384 367 354.152 367C385.288 367 398.824 342.328 398.824 342.328L396.008 335.976C396.008 335.976 383.752 347.416 364.104 347.416C336.536 347.416 325.304 326.824 323.512 305.208L325.816 302.152L385.288 293.512C390.408 292.744 399.336 289.432 399.336 289.432C398.312 259.944 376.872 245.944 354.392 245.944C322.488 245.944 298.488 273.928 298.488 308.76ZM349.8 256.632C370.488 256.632 372.008 285.624 372.008 285.624L323.512 291.976C325.048 272.904 334.232 256.632 349.8 256.632ZM416.168 309.016C416.168 338.52 435.304 367 471.048 367C502.184 367 514.696 343.864 514.696 343.864L511.896 337.752C511.896 337.752 500.408 347.416 482.024 347.416C453.432 347.416 441.176 325.288 441.176 300.12C441.176 276.472 451.896 255.608 471.048 255.608C488.92 255.608 489.688 276.216 503.208 276.216C510.104 276.216 514.184 271.128 514.184 265.784C514.184 257.144 504.488 251.8 493.512 248.744C490.905 243.352 489.512 237.453 489.432 231.464C489.432 211.112 503.976 196.36 529.752 196.36C541 196.36 543.032 199.672 543.032 211.624V340.296C543.032 349.448 538.952 355.56 527.72 356.824V364.712L585.416 363.192L586.424 356.312L567.8 354.024C567.8 354.024 569.08 347.928 569.08 340.296V278.248C578.776 269.848 592.04 264.52 602.264 264.52C612.472 264.52 618.584 269.096 618.584 287.656V340.296C618.584 349.448 615.016 355.56 605.32 356.824V364.712L663.528 363.192L664.552 356.312L643.352 353.768C643.352 353.768 644.632 347.928 644.632 340.296V280.296C644.632 255.608 632.632 245.944 615.032 245.944C593.592 245.944 577.24 259.944 568.056 272.392C568.056 270.104 569.08 264.008 569.08 251.8V204.76C569.08 185.176 571.64 175.768 571.64 175.768L570.84 175C570.84 175 548.12 182.888 531.8 184.664C513.912 186.184 478.184 194.84 478.184 231.208C478.184 238.328 479.704 243.912 480.472 246.2C477.912 246.2 475.624 245.944 473.592 245.944C436.312 245.944 416.152 278.504 416.152 309.016H416.168ZM675.432 364.712L733.128 363.192L734.152 356.312L715.512 353.768C715.512 353.768 716.792 347.928 716.792 340.296V278.52C726.488 269.624 739.768 264.536 749.976 264.536C760.184 264.536 766.312 269.112 766.312 287.672V340.312C766.312 349.464 763.256 355.576 753.032 356.84V364.728L810.984 363.208L812.008 356.328L791.08 353.784C791.08 353.784 792.36 347.944 792.36 340.312V280.312C792.36 255.624 780.104 245.96 762.488 245.96C741.304 245.96 724.456 260.2 715.512 272.92C716.024 250.296 718.328 243.16 718.328 243.16L717.56 242.408C717.56 242.408 699.432 249.768 672.12 254.616V261.976H683.096C690.504 261.976 690.76 268.344 690.76 279.032V340.312C690.76 349.464 686.424 355.576 675.432 356.84V364.728V364.712ZM822.52 309.016C822.52 342.072 844.2 367 880.712 367C922.584 367 943 333.688 943 301.896C943 269.848 922.072 245.944 884.28 245.944C840.12 245.944 822.52 279.016 822.52 309.016ZM851.096 302.664C851.096 278.76 860.296 255.624 881.48 255.624C904.968 255.624 914.152 283.848 914.408 308.008C914.408 331.4 905.992 357.336 884.28 357.336C860.808 357.336 851.096 327.832 851.096 302.664Z" fill="#44BB88"/>
<path d="M651.554 407.144L655.641 467.92H651.554C646.104 449.727 638.326 436.631 628.219 428.633C618.111 420.635 605.982 416.636 591.832 416.636C579.967 416.636 569.244 419.668 559.664 425.732C550.084 431.709 542.525 441.289 536.988 454.473C531.539 467.656 528.814 484.048 528.814 503.647C528.814 519.819 531.407 533.838 536.593 545.703C541.778 557.568 549.557 566.665 559.928 572.993C570.387 579.321 582.296 582.485 595.655 582.485C607.257 582.485 617.496 580.024 626.373 575.103C635.25 570.093 645.006 560.205 655.641 545.439L659.728 548.076C650.763 563.984 640.304 575.63 628.351 583.013C616.397 590.396 602.203 594.087 585.768 594.087C556.148 594.087 533.209 583.101 516.949 561.128C504.82 544.78 498.756 525.532 498.756 503.384C498.756 485.542 502.755 469.15 510.753 454.209C518.751 439.268 529.737 427.71 543.712 419.536C557.774 411.274 573.111 407.144 589.723 407.144C602.643 407.144 615.387 410.308 627.955 416.636C631.646 418.569 634.283 419.536 635.865 419.536C638.238 419.536 640.304 418.701 642.062 417.031C644.347 414.658 645.973 411.362 646.939 407.144H651.554ZM786.09 469.238V542.407C786.09 556.382 786.397 564.951 787.012 568.115C787.716 571.191 788.77 573.345 790.177 574.575C791.671 575.806 793.385 576.421 795.318 576.421C798.043 576.421 801.119 575.674 804.547 574.18L806.392 578.794L770.269 593.691H764.337V568.115C753.966 579.365 746.055 586.44 740.606 589.341C735.157 592.241 729.4 593.691 723.336 593.691C716.568 593.691 710.679 591.758 705.67 587.891C700.748 583.936 697.32 578.882 695.387 572.729C693.453 566.577 692.486 557.876 692.486 546.626V492.705C692.486 486.992 691.871 483.037 690.64 480.84C689.41 478.643 687.564 476.973 685.103 475.83C682.73 474.6 678.38 474.028 672.052 474.116V469.238H714.371V550.054C714.371 561.304 716.304 568.687 720.172 572.202C724.127 575.718 728.873 577.476 734.41 577.476C738.189 577.476 742.452 576.289 747.198 573.916C752.032 571.543 757.745 567.017 764.337 560.337V491.914C764.337 485.059 763.062 480.444 760.513 478.071C758.053 475.61 752.867 474.292 744.957 474.116V469.238H786.09ZM853.257 465.679V492.837C863.365 474.731 873.736 465.679 884.371 465.679C889.205 465.679 893.204 467.173 896.368 470.161C899.532 473.062 901.114 476.445 901.114 480.312C901.114 483.74 899.971 486.641 897.686 489.014C895.401 491.387 892.676 492.573 889.512 492.573C886.436 492.573 882.964 491.079 879.097 488.091C875.318 485.015 872.505 483.477 870.66 483.477C869.078 483.477 867.364 484.355 865.518 486.113C861.563 489.717 857.476 495.649 853.257 503.911V561.787C853.257 568.467 854.092 573.521 855.762 576.948C856.905 579.321 858.926 581.299 861.827 582.881C864.727 584.463 868.902 585.254 874.351 585.254V590H812.52V585.254C818.672 585.254 823.243 584.287 826.231 582.354C828.428 580.947 829.966 578.706 830.845 575.63C831.285 574.136 831.504 569.873 831.504 562.842V516.04C831.504 501.978 831.197 493.628 830.582 490.991C830.054 488.267 829 486.289 827.418 485.059C825.923 483.828 824.034 483.213 821.749 483.213C819.024 483.213 815.948 483.872 812.52 485.19L811.202 480.444L847.72 465.679H853.257ZM988.584 465.679V506.812H984.234C980.894 493.892 976.587 485.103 971.314 480.444C966.128 475.786 959.493 473.457 951.407 473.457C945.254 473.457 940.288 475.083 936.509 478.335C932.73 481.587 930.84 485.19 930.84 489.146C930.84 494.067 932.246 498.286 935.059 501.802C937.784 505.405 943.321 509.229 951.67 513.271L970.918 522.632C988.76 531.333 997.681 542.803 997.681 557.041C997.681 568.027 993.506 576.904 985.157 583.672C976.895 590.352 967.622 593.691 957.339 593.691C949.956 593.691 941.519 592.373 932.027 589.736C929.126 588.857 926.753 588.418 924.908 588.418C922.886 588.418 921.304 589.561 920.162 591.846H915.811V548.735H920.162C922.622 561.04 927.325 570.312 934.268 576.553C941.211 582.793 948.99 585.913 957.603 585.913C963.667 585.913 968.589 584.155 972.369 580.64C976.236 577.036 978.169 572.729 978.169 567.72C978.169 561.655 976.016 556.558 971.709 552.427C967.491 548.296 959.009 543.066 946.265 536.738C933.521 530.41 925.171 524.697 921.216 519.6C917.261 514.59 915.284 508.262 915.284 500.615C915.284 490.684 918.667 482.378 925.435 475.698C932.29 469.019 941.123 465.679 951.934 465.679C956.68 465.679 962.437 466.689 969.204 468.711C973.687 470.029 976.675 470.688 978.169 470.688C979.576 470.688 980.674 470.381 981.465 469.766C982.256 469.15 983.179 467.788 984.234 465.679H988.584ZM1077.51 465.679C1095.79 465.679 1110.46 472.622 1121.54 486.509C1130.94 498.374 1135.64 511.997 1135.64 527.378C1135.64 538.188 1133.05 549.131 1127.87 560.205C1122.68 571.279 1115.52 579.629 1106.38 585.254C1097.32 590.879 1087.22 593.691 1076.05 593.691C1057.86 593.691 1043.4 586.44 1032.68 571.938C1023.63 559.722 1019.1 546.011 1019.1 530.806C1019.1 519.731 1021.83 508.745 1027.28 497.847C1032.81 486.86 1040.06 478.774 1049.03 473.589C1057.99 468.315 1067.49 465.679 1077.51 465.679ZM1073.42 474.248C1068.76 474.248 1064.06 475.654 1059.31 478.467C1054.65 481.191 1050.87 486.025 1047.97 492.969C1045.07 499.912 1043.62 508.833 1043.62 519.731C1043.62 537.31 1047.09 552.471 1054.04 565.215C1061.07 577.959 1070.3 584.331 1081.72 584.331C1090.25 584.331 1097.28 580.815 1102.82 573.784C1108.35 566.753 1111.12 554.668 1111.12 537.529C1111.12 516.084 1106.51 499.209 1097.28 486.904C1091.04 478.467 1083.09 474.248 1073.42 474.248ZM1234.19 465.679V506.812H1229.84C1226.5 493.892 1222.19 485.103 1216.92 480.444C1211.73 475.786 1205.1 473.457 1197.01 473.457C1190.86 473.457 1185.89 475.083 1182.11 478.335C1178.33 481.587 1176.45 485.19 1176.45 489.146C1176.45 494.067 1177.85 498.286 1180.66 501.802C1183.39 505.405 1188.93 509.229 1197.28 513.271L1216.52 522.632C1234.37 531.333 1243.29 542.803 1243.29 557.041C1243.29 568.027 1239.11 576.904 1230.76 583.672C1222.5 590.352 1213.23 593.691 1202.94 593.691C1195.56 593.691 1187.12 592.373 1177.63 589.736C1174.73 588.857 1172.36 588.418 1170.51 588.418C1168.49 588.418 1166.91 589.561 1165.77 591.846H1161.42V548.735H1165.77C1168.23 561.04 1172.93 570.312 1179.87 576.553C1186.82 582.793 1194.59 585.913 1203.21 585.913C1209.27 585.913 1214.19 584.155 1217.97 580.64C1221.84 577.036 1223.77 572.729 1223.77 567.72C1223.77 561.655 1221.62 556.558 1217.31 552.427C1213.1 548.296 1204.61 543.066 1191.87 536.738C1179.13 530.41 1170.78 524.697 1166.82 519.6C1162.87 514.59 1160.89 508.262 1160.89 500.615C1160.89 490.684 1164.27 482.378 1171.04 475.698C1177.9 469.019 1186.73 465.679 1197.54 465.679C1202.29 465.679 1208.04 466.689 1214.81 468.711C1219.29 470.029 1222.28 470.688 1223.77 470.688C1225.18 470.688 1226.28 470.381 1227.07 469.766C1227.86 469.15 1228.78 467.788 1229.84 465.679H1234.19Z" fill="#44BB88"/>
</svg>
